<svg xmlns="http://www.w3.org/2000/svg" version="1.1" xmlns:xlink="http://www.w3.org/1999/xlink" xmlns:svgjs="http://svgjs.dev/svgjs" width="1440" height="560" preserveAspectRatio="none" viewBox="0 0 1440 560"><g mask="url(&quot;#SvgjsMask1481&quot;)" fill="none"><rect width="1440" height="560" x="0" y="0" fill="rgba(245, 140, 0, 1)"></rect><use xlink:href="#SvgjsG1488" transform="translate(0, 0)" fill="rgba(239, 177, 94, 1)"></use><use xlink:href="#SvgjsG1488" transform="translate(0, 308)" fill="rgba(239, 177, 94, 1)"></use><use xlink:href="#SvgjsG1488" transform="translate(308, 0)" fill="rgba(239, 177, 94, 1)"></use><use xlink:href="#SvgjsG1488" transform="translate(308, 308)" fill="rgba(239, 177, 94, 1)"></use><use xlink:href="#SvgjsG1488" transform="translate(616, 0)" fill="rgba(239, 177, 94, 1)"></use><use xlink:href="#SvgjsG1488" transform="translate(616, 308)" fill="rgba(239, 177, 94, 1)"></use><use xlink:href="#SvgjsG1488" transform="translate(924, 0)" fill="rgba(239, 177, 94, 1)"></use><use xlink:href="#SvgjsG1488" transform="translate(924, 308)" fill="rgba(239, 177, 94, 1)"></use><use xlink:href="#SvgjsG1488" transform="translate(1232, 0)" fill="rgba(239, 177, 94, 1)"></use><use xlink:href="#SvgjsG1488" transform="translate(1232, 308)" fill="rgba(239, 177, 94, 1)"></use></g><defs><mask id="SvgjsMask1481"><rect width="1440" height="560" fill="#ffffff"></rect></mask><g id="SvgjsG1483"><path d="M3.474 10.969C3.474 7.665 8.077 0.361 8.077 0.361s4.602 7.305 4.602 10.608c0 2.247-1.506 4.771-4.602 4.771-3.095 0-4.603-2.524-4.603-4.771z" fill-rule="evenodd"></path></g><g id="SvgjsG1484"><path d="M2.524 8.637H0.014V7.308h2.51v1.329zM3.656 4.576L1.884 2.804l0.935-0.935 1.772 1.772-0.935 0.935z m0 6.817l0.935 0.935-1.772 1.773-0.934-0.936 1.771-1.772z m4.997-8.884h-1.33V-0.002h1.33v2.511z m-1.33 10.952h1.33v2.51h-1.33v-2.509zM12.344 4.576l-0.96-0.935 1.796-1.772 0.935 0.935-1.772 1.772z m0 6.792l1.771 1.797-0.935 0.936-1.771-1.774 0.936-0.96z m3.643-4.06v1.329h-2.51V7.308h2.509z"></path><path d="M3.702 7.984a4.184 4.184 0 1 0 8.368 0 4.184 4.184 0 1 0-8.368 0"></path></g><g id="SvgjsG1485"><path d="M15.233 9.431c0.295 0 0.569-0.239 0.61-0.532 0 0 0.056-0.411 0.056-0.899s-0.056-0.899-0.056-0.899c-0.041-0.292-0.315-0.531-0.61-0.53h-1.524c-0.295 0-0.602-0.188-0.681-0.418s-0.188-0.967 0.021-1.176l1.078-1.077c0.209-0.209 0.225-0.565 0.036-0.792l-1.268-1.268c-0.227-0.189-0.583-0.173-0.792 0.036l-1.078 1.077c-0.208 0.209-0.556 0.293-0.772 0.187s-0.822-0.552-0.821-0.847V0.767c0-0.295-0.239-0.569-0.531-0.61 0 0-0.411-0.057-0.9-0.056s-0.899 0.057-0.899 0.056c-0.293 0.04-0.532 0.315-0.532 0.61v1.524c0 0.295-0.188 0.601-0.418 0.681s-0.967 0.188-1.176-0.021l-1.078-1.078C3.689 1.665 3.333 1.649 3.107 1.837l-1.268 1.268c-0.189 0.227-0.173 0.583 0.036 0.792l1.077 1.078c0.209 0.209 0.293 0.556 0.187 0.772s-0.552 0.822-0.847 0.822H0.767c-0.295 0-0.569 0.239-0.61 0.531 0 0-0.057 0.411-0.056 0.899s0.057 0.899 0.056 0.9c0.04 0.293 0.315 0.532 0.61 0.532h1.525c0.295 0 0.601 0.188 0.681 0.417 0.079 0.23 0.188 0.967-0.02 1.176l-1.078 1.077C1.667 12.311 1.651 12.667 1.84 12.893l1.267 1.268c0.227 0.189 0.583 0.173 0.792-0.036l1.077-1.077c0.209-0.208 0.556-0.292 0.772-0.187s0.821 0.553 0.822 0.848v1.524c0 0.295 0.239 0.569 0.532 0.61 0 0 0.411 0.057 0.899 0.057s0.899-0.056 0.899-0.057c0.293-0.04 0.531-0.315 0.532-0.609v-1.524c0-0.295 0.188-0.602 0.418-0.681 0.23-0.079 0.967-0.188 1.176 0.021l1.077 1.077c0.209 0.209 0.565 0.225 0.792 0.036l1.268-1.267c0.189-0.227 0.173-0.583-0.036-0.792l-1.078-1.077c-0.209-0.209-0.293-0.557-0.186-0.773 0.106-0.216 0.552-0.822 0.847-0.822h1.525zM8 10.892c-1.597 0-2.891-1.294-2.891-2.892 0-1.596 1.295-2.891 2.891-2.891S10.892 6.404 10.892 8 9.597 10.892 8 10.892z"></path></g><g id="SvgjsG1487"><path d="M8.76 6.296L0.5 2.37v-0.78L9.032 5.68l-0.274 0.614zM5.936 10.61h3.614v3.226a0.954 0.954 0 0 0 1.91 0V10.61c0.286 0 0.314-0.188 0.314-0.406V7.8l-3.02-1.48h-6.42l-0.828-0.468a0.552 0.552 0 0 0-0.754 0.208c-0.15 0.264-0.06 0.6 0.208 0.754l1.308 0.75v6.272a0.954 0.954 0 0 0 1.91 0L4.172 11.38l1.73 2.92a0.96 0.96 0 0 0 1.312 0.334 0.966 0.966 0 0 0 0.328-1.314l-1.612-2.71z m3.114-4.946l2.72 1.292v-0.506l2.214-0.004 0.812-1.746L9.05 1.96v3.704z" fill-rule="evenodd"></path></g><g id="SvgjsG1486"><path d="M6.038 10.472H10.08v3.613c0 0.594 0.479 1.073 1.073 1.073s1.066-0.479 1.066-1.073V10.472c0.322 0 0.358-0.207 0.358-0.451V7.323l-3.384-1.652H2.004l-0.923-0.526c-0.3-0.169-0.679-0.061-0.844 0.232a0.613 0.613 0 0 0 0.234 0.844l1.458 0.838v7.026a1.071 1.071 0 0 0 1.073 1.073c0.587 0 1.066-0.479 1.065-1.073v-2.754L6 14.607c0.309 0.508 0.966 0.673 1.467 0.372a1.073 1.073 0 0 0 0.372-1.466l-1.803-3.041z m3.484-5.538l3.047 1.452v-0.573h2.476l0.908-1.96L9.522 0.791v4.143z" fill-rule="evenodd"></path></g><g id="SvgjsG1482"><path d="M14.643 3.297L12.92 2.57c-0.7-0.265-0.057-0.792-0.963-1.24-0.4-0.19-1.898-0.515-1.898-0.515-0.352-0.122-1.376 0.23-1.376 0.935 0 0.7-0.172 0.755-0.172 0.755-0.734 1.576-0.294 0.874-0.645 2.42-0.014 0.08-0.06 0.295-0.265 0.7C6.875 7.06 5 8.704 3.398 9.627c-1.87 1.09-1.84 3.95-1.84 3.95-1.372-0.09-1.344-2.16-1.344-2.16-0.992 2.54 1.784 3.238 1.784 3.238 0.67 0.67 1.984 0.498 1.984 0.498 0.498-0.064 0.555 0.025 0.555 0.025s0.06 0.268 0.877 0.293c0.817 0.03 1.547-0.054 1.898 0.122 0.35 0.164 1.11 0.2 1.11 0.2 0.556 0.147 0.495-0.47 0.495-0.47-0.29-0.67-0.992-0.608-0.992-0.608l-1.372-0.06c1.927-0.61 1.604-1.748 1.604-1.748-0.168-0.646-0.77-0.75-1.192-0.764-0.068-0.007 0-0.086 0-0.086 1.178-0.34 2.245-1.117 2.245-1.117-0.028 0.587 0.527 1.49 0.788 1.9 0.265 0.413 0.702 2.078 0.702 2.078 0.322 0.352 0.437 0.646 0.437 0.646 0.265 0.175 1.17 0.14 1.17 0.14 0.234-0.03 0.29-0.11 0.29-0.11l0.033-0.564c-0.15-0.64-0.877-0.64-0.877-0.64l-0.763-3.267c-0.086-0.526 0.294-1.17 0.294-1.17 0.44-1.397-0.32-2.834-0.32-2.834-0.088-0.206 0.263-0.206 0.263-0.206s0.204-0.094 0.702-0.262c0.493-0.172 0.23-0.788 0.23-0.788l-0.264-0.873c-0.086-0.408 0.734 0.054 0.734 0.054 0.874 0.498 1.576-0.236 1.752-0.376 0.175-0.147 0.118-0.322 0.494-0.673 0.38-0.348-0.233-0.698-0.233-0.698" fill-rule="evenodd"></path></g><g id="SvgjsG1488"><use xlink:href="#SvgjsG1482" transform="translate(0, 0) scale(1.4)" fill="rgba(239, 177, 94, 1)"></use><use xlink:href="#SvgjsG1482" transform="translate(0, 30.799999999999997) scale(1.4)" fill="rgba(239, 177, 94, 1)"></use><use xlink:href="#SvgjsG1483" transform="translate(0, 61.599999999999994) scale(1.4)" fill="rgba(239, 177, 94, 1)"></use><use xlink:href="#SvgjsG1484" transform="translate(0, 92.39999999999999) scale(1.4)" fill="rgba(239, 177, 94, 1)"></use><use xlink:href="#SvgjsG1485" transform="translate(0, 123.19999999999999) scale(1.4)" fill="rgba(239, 177, 94, 1)"></use><use xlink:href="#SvgjsG1485" transform="translate(0, 154) scale(1.4)" fill="rgba(239, 177, 94, 1)"></use><use xlink:href="#SvgjsG1484" transform="translate(0, 184.79999999999998) scale(1.4)" fill="rgba(239, 177, 94, 1)"></use><use xlink:href="#SvgjsG1482" transform="translate(0, 215.59999999999997) scale(1.4)" fill="rgba(239, 177, 94, 1)"></use><use xlink:href="#SvgjsG1482" transform="translate(0, 246.39999999999998) scale(1.4)" fill="rgba(239, 177, 94, 1)"></use><use xlink:href="#SvgjsG1486" transform="translate(0, 277.2) scale(1.4)" fill="rgba(239, 177, 94, 1)"></use><use xlink:href="#SvgjsG1486" transform="translate(30.799999999999997, 0) scale(1.4)" fill="rgba(239, 177, 94, 1)"></use><use xlink:href="#SvgjsG1486" transform="translate(30.799999999999997, 30.799999999999997) scale(1.4)" fill="rgba(239, 177, 94, 1)"></use><use xlink:href="#SvgjsG1485" transform="translate(30.799999999999997, 61.599999999999994) scale(1.4)" fill="rgba(239, 177, 94, 1)"></use><use xlink:href="#SvgjsG1483" transform="translate(30.799999999999997, 92.39999999999999) scale(1.4)" fill="rgba(239, 177, 94, 1)"></use><use xlink:href="#SvgjsG1482" transform="translate(30.799999999999997, 123.19999999999999) scale(1.4)" fill="rgba(239, 177, 94, 1)"></use><use xlink:href="#SvgjsG1483" transform="translate(30.799999999999997, 154) scale(1.4)" fill="rgba(239, 177, 94, 1)"></use><use xlink:href="#SvgjsG1483" transform="translate(30.799999999999997, 184.79999999999998) scale(1.4)" fill="rgba(239, 177, 94, 1)"></use><use xlink:href="#SvgjsG1486" transform="translate(30.799999999999997, 215.59999999999997) scale(1.4)" fill="rgba(239, 177, 94, 1)"></use><use xlink:href="#SvgjsG1483" transform="translate(30.799999999999997, 246.39999999999998) scale(1.4)" fill="rgba(239, 177, 94, 1)"></use><use xlink:href="#SvgjsG1483" transform="translate(30.799999999999997, 277.2) scale(1.4)" fill="rgba(239, 177, 94, 1)"></use><use xlink:href="#SvgjsG1487" transform="translate(61.599999999999994, 0) scale(1.4)" fill="rgba(239, 177, 94, 1)"></use><use xlink:href="#SvgjsG1484" transform="translate(61.599999999999994, 30.799999999999997) scale(1.4)" fill="rgba(239, 177, 94, 1)"></use><use xlink:href="#SvgjsG1483" transform="translate(61.599999999999994, 61.599999999999994) scale(1.4)" fill="rgba(239, 177, 94, 1)"></use><use xlink:href="#SvgjsG1486" transform="translate(61.599999999999994, 92.39999999999999) scale(1.4)" fill="rgba(239, 177, 94, 1)"></use><use xlink:href="#SvgjsG1483" transform="translate(61.599999999999994, 123.19999999999999) scale(1.4)" fill="rgba(239, 177, 94, 1)"></use><use xlink:href="#SvgjsG1486" transform="translate(61.599999999999994, 154) scale(1.4)" fill="rgba(239, 177, 94, 1)"></use><use xlink:href="#SvgjsG1483" transform="translate(61.599999999999994, 184.79999999999998) scale(1.4)" fill="rgba(239, 177, 94, 1)"></use><use xlink:href="#SvgjsG1485" transform="translate(61.599999999999994, 215.59999999999997) scale(1.4)" fill="rgba(239, 177, 94, 1)"></use><use xlink:href="#SvgjsG1486" transform="translate(61.599999999999994, 246.39999999999998) scale(1.4)" fill="rgba(239, 177, 94, 1)"></use><use xlink:href="#SvgjsG1486" transform="translate(61.599999999999994, 277.2) scale(1.4)" fill="rgba(239, 177, 94, 1)"></use><use xlink:href="#SvgjsG1483" transform="translate(92.39999999999999, 0) scale(1.4)" fill="rgba(239, 177, 94, 1)"></use><use xlink:href="#SvgjsG1487" transform="translate(92.39999999999999, 30.799999999999997) scale(1.4)" fill="rgba(239, 177, 94, 1)"></use><use xlink:href="#SvgjsG1482" transform="translate(92.39999999999999, 61.599999999999994) scale(1.4)" fill="rgba(239, 177, 94, 1)"></use><use xlink:href="#SvgjsG1487" transform="translate(92.39999999999999, 92.39999999999999) scale(1.4)" fill="rgba(239, 177, 94, 1)"></use><use xlink:href="#SvgjsG1485" transform="translate(92.39999999999999, 123.19999999999999) scale(1.4)" fill="rgba(239, 177, 94, 1)"></use><use xlink:href="#SvgjsG1482" transform="translate(92.39999999999999, 154) scale(1.4)" fill="rgba(239, 177, 94, 1)"></use><use xlink:href="#SvgjsG1483" transform="translate(92.39999999999999, 184.79999999999998) scale(1.4)" fill="rgba(239, 177, 94, 1)"></use><use xlink:href="#SvgjsG1484" transform="translate(92.39999999999999, 215.59999999999997) scale(1.4)" fill="rgba(239, 177, 94, 1)"></use><use xlink:href="#SvgjsG1486" transform="translate(92.39999999999999, 246.39999999999998) scale(1.4)" fill="rgba(239, 177, 94, 1)"></use><use xlink:href="#SvgjsG1483" transform="translate(92.39999999999999, 277.2) scale(1.4)" fill="rgba(239, 177, 94, 1)"></use><use xlink:href="#SvgjsG1484" transform="translate(123.19999999999999, 0) scale(1.4)" fill="rgba(239, 177, 94, 1)"></use><use xlink:href="#SvgjsG1482" transform="translate(123.19999999999999, 30.799999999999997) scale(1.4)" fill="rgba(239, 177, 94, 1)"></use><use xlink:href="#SvgjsG1485" transform="translate(123.19999999999999, 61.599999999999994) scale(1.4)" fill="rgba(239, 177, 94, 1)"></use><use xlink:href="#SvgjsG1487" transform="translate(123.19999999999999, 92.39999999999999) scale(1.4)" fill="rgba(239, 177, 94, 1)"></use><use xlink:href="#SvgjsG1486" transform="translate(123.19999999999999, 123.19999999999999) scale(1.4)" fill="rgba(239, 177, 94, 1)"></use><use xlink:href="#SvgjsG1487" transform="translate(123.19999999999999, 154) scale(1.4)" fill="rgba(239, 177, 94, 1)"></use><use xlink:href="#SvgjsG1483" transform="translate(123.19999999999999, 184.79999999999998) scale(1.4)" fill="rgba(239, 177, 94, 1)"></use><use xlink:href="#SvgjsG1486" transform="translate(123.19999999999999, 215.59999999999997) scale(1.4)" fill="rgba(239, 177, 94, 1)"></use><use xlink:href="#SvgjsG1485" transform="translate(123.19999999999999, 246.39999999999998) scale(1.4)" fill="rgba(239, 177, 94, 1)"></use><use xlink:href="#SvgjsG1484" transform="translate(123.19999999999999, 277.2) scale(1.4)" fill="rgba(239, 177, 94, 1)"></use><use xlink:href="#SvgjsG1485" transform="translate(154, 0) scale(1.4)" fill="rgba(239, 177, 94, 1)"></use><use xlink:href="#SvgjsG1483" transform="translate(154, 30.799999999999997) scale(1.4)" fill="rgba(239, 177, 94, 1)"></use><use xlink:href="#SvgjsG1487" transform="translate(154, 61.599999999999994) scale(1.4)" fill="rgba(239, 177, 94, 1)"></use><use xlink:href="#SvgjsG1483" transform="translate(154, 92.39999999999999) scale(1.4)" fill="rgba(239, 177, 94, 1)"></use><use xlink:href="#SvgjsG1482" transform="translate(154, 123.19999999999999) scale(1.4)" fill="rgba(239, 177, 94, 1)"></use><use xlink:href="#SvgjsG1486" transform="translate(154, 154) scale(1.4)" fill="rgba(239, 177, 94, 1)"></use><use xlink:href="#SvgjsG1487" transform="translate(154, 184.79999999999998) scale(1.4)" fill="rgba(239, 177, 94, 1)"></use><use xlink:href="#SvgjsG1485" transform="translate(154, 215.59999999999997) scale(1.4)" fill="rgba(239, 177, 94, 1)"></use><use xlink:href="#SvgjsG1486" transform="translate(154, 246.39999999999998) scale(1.4)" fill="rgba(239, 177, 94, 1)"></use><use xlink:href="#SvgjsG1485" transform="translate(154, 277.2) scale(1.4)" fill="rgba(239, 177, 94, 1)"></use><use xlink:href="#SvgjsG1484" transform="translate(184.79999999999998, 0) scale(1.4)" fill="rgba(239, 177, 94, 1)"></use><use xlink:href="#SvgjsG1483" transform="translate(184.79999999999998, 30.799999999999997) scale(1.4)" fill="rgba(239, 177, 94, 1)"></use><use xlink:href="#SvgjsG1487" transform="translate(184.79999999999998, 61.599999999999994) scale(1.4)" fill="rgba(239, 177, 94, 1)"></use><use xlink:href="#SvgjsG1483" transform="translate(184.79999999999998, 92.39999999999999) scale(1.4)" fill="rgba(239, 177, 94, 1)"></use><use xlink:href="#SvgjsG1483" transform="translate(184.79999999999998, 123.19999999999999) scale(1.4)" fill="rgba(239, 177, 94, 1)"></use><use xlink:href="#SvgjsG1482" transform="translate(184.79999999999998, 154) scale(1.4)" fill="rgba(239, 177, 94, 1)"></use><use xlink:href="#SvgjsG1487" transform="translate(184.79999999999998, 184.79999999999998) scale(1.4)" fill="rgba(239, 177, 94, 1)"></use><use xlink:href="#SvgjsG1483" transform="translate(184.79999999999998, 215.59999999999997) scale(1.4)" fill="rgba(239, 177, 94, 1)"></use><use xlink:href="#SvgjsG1486" transform="translate(184.79999999999998, 246.39999999999998) scale(1.4)" fill="rgba(239, 177, 94, 1)"></use><use xlink:href="#SvgjsG1484" transform="translate(184.79999999999998, 277.2) scale(1.4)" fill="rgba(239, 177, 94, 1)"></use><use xlink:href="#SvgjsG1484" transform="translate(215.59999999999997, 0) scale(1.4)" fill="rgba(239, 177, 94, 1)"></use><use xlink:href="#SvgjsG1482" transform="translate(215.59999999999997, 30.799999999999997) scale(1.4)" fill="rgba(239, 177, 94, 1)"></use><use xlink:href="#SvgjsG1483" transform="translate(215.59999999999997, 61.599999999999994) scale(1.4)" fill="rgba(239, 177, 94, 1)"></use><use xlink:href="#SvgjsG1482" transform="translate(215.59999999999997, 92.39999999999999) scale(1.4)" fill="rgba(239, 177, 94, 1)"></use><use xlink:href="#SvgjsG1485" transform="translate(215.59999999999997, 123.19999999999999) scale(1.4)" fill="rgba(239, 177, 94, 1)"></use><use xlink:href="#SvgjsG1487" transform="translate(215.59999999999997, 154) scale(1.4)" fill="rgba(239, 177, 94, 1)"></use><use xlink:href="#SvgjsG1486" transform="translate(215.59999999999997, 184.79999999999998) scale(1.4)" fill="rgba(239, 177, 94, 1)"></use><use xlink:href="#SvgjsG1486" transform="translate(215.59999999999997, 215.59999999999997) scale(1.4)" fill="rgba(239, 177, 94, 1)"></use><use xlink:href="#SvgjsG1485" transform="translate(215.59999999999997, 246.39999999999998) scale(1.4)" fill="rgba(239, 177, 94, 1)"></use><use xlink:href="#SvgjsG1486" transform="translate(215.59999999999997, 277.2) scale(1.4)" fill="rgba(239, 177, 94, 1)"></use><use xlink:href="#SvgjsG1486" transform="translate(246.39999999999998, 0) scale(1.4)" fill="rgba(239, 177, 94, 1)"></use><use xlink:href="#SvgjsG1483" transform="translate(246.39999999999998, 30.799999999999997) scale(1.4)" fill="rgba(239, 177, 94, 1)"></use><use xlink:href="#SvgjsG1484" transform="translate(246.39999999999998, 61.599999999999994) scale(1.4)" fill="rgba(239, 177, 94, 1)"></use><use xlink:href="#SvgjsG1482" transform="translate(246.39999999999998, 92.39999999999999) scale(1.4)" fill="rgba(239, 177, 94, 1)"></use><use xlink:href="#SvgjsG1486" transform="translate(246.39999999999998, 123.19999999999999) scale(1.4)" fill="rgba(239, 177, 94, 1)"></use><use xlink:href="#SvgjsG1487" transform="translate(246.39999999999998, 154) scale(1.4)" fill="rgba(239, 177, 94, 1)"></use><use xlink:href="#SvgjsG1483" transform="translate(246.39999999999998, 184.79999999999998) scale(1.4)" fill="rgba(239, 177, 94, 1)"></use><use xlink:href="#SvgjsG1487" transform="translate(246.39999999999998, 215.59999999999997) scale(1.4)" fill="rgba(239, 177, 94, 1)"></use><use xlink:href="#SvgjsG1487" transform="translate(246.39999999999998, 246.39999999999998) scale(1.4)" fill="rgba(239, 177, 94, 1)"></use><use xlink:href="#SvgjsG1487" transform="translate(246.39999999999998, 277.2) scale(1.4)" fill="rgba(239, 177, 94, 1)"></use><use xlink:href="#SvgjsG1487" transform="translate(277.2, 0) scale(1.4)" fill="rgba(239, 177, 94, 1)"></use><use xlink:href="#SvgjsG1486" transform="translate(277.2, 30.799999999999997) scale(1.4)" fill="rgba(239, 177, 94, 1)"></use><use xlink:href="#SvgjsG1487" transform="translate(277.2, 61.599999999999994) scale(1.4)" fill="rgba(239, 177, 94, 1)"></use><use xlink:href="#SvgjsG1484" transform="translate(277.2, 92.39999999999999) scale(1.4)" fill="rgba(239, 177, 94, 1)"></use><use xlink:href="#SvgjsG1483" transform="translate(277.2, 123.19999999999999) scale(1.4)" fill="rgba(239, 177, 94, 1)"></use><use xlink:href="#SvgjsG1486" transform="translate(277.2, 154) scale(1.4)" fill="rgba(239, 177, 94, 1)"></use><use xlink:href="#SvgjsG1482" transform="translate(277.2, 184.79999999999998) scale(1.4)" fill="rgba(239, 177, 94, 1)"></use><use xlink:href="#SvgjsG1487" transform="translate(277.2, 215.59999999999997) scale(1.4)" fill="rgba(239, 177, 94, 1)"></use><use xlink:href="#SvgjsG1484" transform="translate(277.2, 246.39999999999998) scale(1.4)" fill="rgba(239, 177, 94, 1)"></use><use xlink:href="#SvgjsG1484" transform="translate(277.2, 277.2) scale(1.4)" fill="rgba(239, 177, 94, 1)"></use></g></defs></svg>